<svg width="21" height="20" viewBox="0 0 21 20" fill="none" xmlns="http://www.w3.org/2000/svg">
<path d="M10.2531 0C4.59122 0 0 4.59041 0 10.2531C0 14.7833 2.93783 18.6266 7.01175 19.9824C7.52414 20.0773 7.71231 19.76 7.71231 19.4891C7.71231 19.2447 7.70274 18.4369 7.6984 17.5802C4.84589 18.2004 4.24399 16.3704 4.24399 16.3704C3.77759 15.1853 3.10557 14.8703 3.10557 14.8703C2.17535 14.2339 3.1757 14.2469 3.1757 14.2469C4.20531 14.3193 4.74746 15.3035 4.74746 15.3035C5.66192 16.871 7.14604 16.4178 7.73113 16.1559C7.82312 15.4931 8.08889 15.0409 8.38208 14.7849C6.10476 14.5255 3.71069 13.6464 3.71069 9.71767C3.71069 8.59831 4.11123 7.6836 4.76716 6.96559C4.66069 6.7073 4.30977 5.6645 4.86647 4.25219C4.86647 4.25219 5.72746 3.97662 7.68682 5.3032C8.50463 5.07595 9.38178 4.96208 10.2531 4.95823C11.1245 4.96208 12.0023 5.07595 12.8217 5.3032C14.7787 3.97662 15.6385 4.25219 15.6385 4.25219C16.1966 5.6645 15.8455 6.7073 15.739 6.96559C16.3964 7.6836 16.7942 8.59823 16.7942 9.71767C16.7942 13.6557 14.3957 14.5229 12.1125 14.7767C12.4803 15.0948 12.808 15.7189 12.808 16.6754C12.808 18.0472 12.7961 19.1514 12.7961 19.4891C12.7961 19.762 12.9806 20.0817 13.5004 19.981C17.5721 18.6237 20.5062 14.7818 20.5062 10.2531C20.5062 4.59041 15.9156 0 10.2531 0Z" fill="#356EA9"/>
<path d="M3.84017 14.6059C3.81765 14.6568 3.7374 14.6721 3.66446 14.6372C3.59008 14.6037 3.54827 14.5342 3.57239 14.4831C3.5945 14.4307 3.67476 14.416 3.74898 14.4512C3.82352 14.4846 3.86598 14.5547 3.84017 14.6059ZM4.34452 15.0559C4.29563 15.1012 4.20002 15.0802 4.13513 15.0085C4.06806 14.937 4.05552 14.8415 4.10513 14.7954C4.15555 14.7501 4.24827 14.7713 4.31549 14.8429C4.38256 14.9151 4.39559 15.0101 4.34444 15.0559M4.69054 15.6316C4.62766 15.6753 4.52489 15.6344 4.46144 15.5432C4.39864 15.4521 4.39864 15.3427 4.46281 15.2989C4.5265 15.2551 4.62766 15.2945 4.69199 15.3849C4.75471 15.4776 4.75471 15.587 4.69046 15.6317M5.27563 16.2985C5.21942 16.3604 5.09977 16.3439 5.01212 16.2593C4.92254 16.1766 4.89753 16.0593 4.9539 15.9973C5.01075 15.9352 5.13113 15.9526 5.21942 16.0365C5.30844 16.119 5.33554 16.2372 5.27563 16.2985ZM6.03184 16.5237C6.00716 16.6039 5.89184 16.6404 5.77573 16.6063C5.65977 16.5712 5.58386 16.4771 5.60726 16.396C5.63138 16.3151 5.74718 16.2771 5.86418 16.3136C5.97998 16.3486 6.05597 16.442 6.03184 16.5237ZM6.89259 16.6191C6.89549 16.7037 6.79698 16.7738 6.67507 16.7754C6.55244 16.778 6.45329 16.7096 6.452 16.6264C6.452 16.541 6.54826 16.4715 6.67081 16.4695C6.79272 16.4671 6.89259 16.5351 6.89259 16.6191ZM7.73806 16.5867C7.75269 16.6692 7.66794 16.754 7.54692 16.7765C7.4279 16.7982 7.31774 16.7473 7.30254 16.6655C7.28774 16.5809 7.37411 16.4962 7.49288 16.4743C7.61414 16.4532 7.72262 16.5028 7.73806 16.5867Z" fill="#356EA9"/>
</svg>
